<?xml version="1.0" encoding="utf-8"?>
<!-- Generator: Adobe Illustrator 16.0.0, SVG Export Plug-In . SVG Version: 6.00 Build 0)  -->
<!DOCTYPE svg PUBLIC "-//W3C//DTD SVG 1.1//EN" "http://www.w3.org/Graphics/SVG/1.1/DTD/svg11.dtd">
<svg version="1.1" id="Layer_1" xmlns="http://www.w3.org/2000/svg" xmlns:xlink="http://www.w3.org/1999/xlink" x="0px" y="0px"
	 width="708.61px" height="900px" viewBox="0 0 708.61 900" enable-background="new 0 0 708.61 900" xml:space="preserve">
<path fill="#989E6F" d="M558.184,865.537l16.704-135.919l52.854-189.988l-31.796-1.584l-6.359,27.022l-20.662,1.58l-4.776-34.96
	l-25.436,4.744l6.357,33.412c0,0-22.239-6.36-28.603-4.776c-6.356,1.58-7.973-36.576-7.973-36.576l-34.959-1.58l4.775,28.6
	l-22.274,1.611l-9.521-31.795l-227.356,3.164l-1.58,23.854l-17.499,4.776l-4.776-31.795h-28.6l11.102,31.795l-28.599,3.164
	l-11.138-30.214l-25.435,3.195l7.938,31.8l-19.077-1.584l-4.74-22.274l-22.278-1.58c0,0,22.278,174.899,19.081,195.559
	c-3.168,20.657-5.57,115.261-13.511,120.037c-7.941,4.744,151.832,15.088,164.554,15.088c12.717,0,154.997-9.553,167.713-9.553
	C425.032,860.761,558.184,865.537,558.184,865.537"/>
<path fill="#79007F" d="M558.184,865.537l1.813,0.232l16.671-135.787l53.444-192.065l-35.582-1.78l-6.429,27.215l-17.595,1.352
	l-4.808-35.188l-29.133,5.471l6.723,35.188l1.78-0.329l0.493-1.78c0,0-4.411-1.251-9.917-2.539
	c-5.5-1.251-12.028-2.535-16.539-2.535c-1.124,0-2.143,0.068-3.098,0.298l0.065,0.229v-0.229h-0.065l0.065,0.229v-0.229v0.297
	l0.1-0.297h-0.1v0.297l0.1-0.297l-0.036-0.037c-0.229-0.128-0.758-0.822-1.187-1.94c-0.855-1.978-1.613-5.073-2.206-8.566
	c-0.923-5.237-1.512-11.338-1.877-16.115c-0.201-2.373-0.329-4.446-0.43-5.898c-0.064-1.447-0.1-2.303-0.1-2.303l-0.064-1.68
	l-38.914-1.781l4.812,28.864l-18.784,1.351l-9.521-31.698l-230.419,3.197l-1.616,24.251l-14.237,3.89l-4.711-31.338h-32.782
	l11.236,32.06l-24.911,2.768l-11.138-30.215l-28.929,3.625l7.842,31.303l-15.192-1.252l-4.777-22.273l-25.834-1.845l0.264,2.208
	c0,0,0.301,2.371,0.826,6.623c1.877,14.826,6.489,52.389,10.676,90.315c4.184,37.923,7.877,76.243,7.877,92.292
	c0,2.604-0.1,4.612-0.301,5.8c-0.79,5.338-1.544,15.091-2.339,26.954c-1.187,17.791-2.501,40.197-4.25,58.549
	c-0.855,9.196-1.845,17.365-2.964,23.397c-0.562,3.032-1.188,5.502-1.78,7.247c-0.298,0.857-0.593,1.548-0.859,2.014l-0.328,0.492
	l-0.101,0.097h-0.028l0.064,0.068l-0.064-0.068l0.064,0.068l-0.064-0.068l-0.693,0.594c-0.229,0.297-0.461,0.79-0.461,1.319
	c0,0.693,0.329,1.22,0.593,1.48c0.526,0.562,0.99,0.726,1.517,0.958c1.019,0.393,2.37,0.723,4.151,1.087
	c6.656,1.315,19.178,2.768,34.564,4.25c23.065,2.175,52.422,4.381,77.034,6.062c24.648,1.65,44.484,2.738,48.804,2.738
	c3.324,0,14.529-0.594,29.882-1.488c23.001-1.347,55.096-3.36,82.64-5.04c13.772-0.822,26.43-1.58,36.183-2.106
	c9.781-0.562,16.769-0.89,19.009-0.89c6.261,0,42.801,1.188,77.664,2.373c17.429,0.595,34.466,1.217,47.15,1.646
	c12.686,0.465,20.991,0.758,20.991,0.758l1.68,0.068l0.198-1.681L558.184,865.537l0.064-1.809c0,0-33.278-1.223-68.174-2.41
	c-34.892-1.184-71.303-2.371-77.761-2.371c-3.292,0-14.533,0.594-29.885,1.483c-23.001,1.353-55.092,3.362-82.641,5.042
	c-13.771,0.823-26.393,1.581-36.178,2.142c-9.785,0.526-16.735,0.854-19.01,0.854c-2.968,0-14.863-0.593-30.877-1.58
	c-24.055-1.516-57.498-3.891-84.913-6.328c-13.708-1.217-25.929-2.468-34.662-3.622c-4.352-0.593-7.877-1.155-10.215-1.648
	c-1.152-0.265-2.042-0.528-2.54-0.693l-0.261-0.129l-0.067-0.035l-0.457,0.726l0.657-0.525l-0.2-0.2l-0.457,0.726l0.657-0.525
	l-1.187,0.922h1.516c0-0.43-0.201-0.793-0.329-0.922l-1.187,0.922h1.516h-1.548l1.219,0.987c0.128-0.165,0.329-0.559,0.329-0.987
	h-1.548l1.219,0.987l-0.822-0.659l0.558,0.892l0.265-0.232l-0.822-0.659l0.558,0.892c1.022-0.662,1.58-1.584,2.142-2.703
	c0.954-2.077,1.749-5.041,2.471-8.831c2.57-13.247,4.351-36.407,5.835-58.485c1.448-22.045,2.635-43.036,3.919-51.302
	c0.229-1.552,0.328-3.661,0.328-6.361c0-18.78-4.841-66.096-9.686-108.867c-4.877-42.736-9.72-80.828-9.72-80.828l-1.813,0.233
	l-0.132,1.812l20.894,1.517l4.777,22.237l22.963,1.913l-8.068-32.292l21.94-2.735l11.138,30.184l32.324-3.59l-11.037-31.535h24.449
	l4.84,32.293l20.729-5.671l1.581-23.461l224.289-3.129l9.558,31.863l25.734-1.812l-4.748-28.37l32.721,1.484l0.065-1.846
	l-1.81,0.101c0,0,0.394,9.188,1.517,18.448c0.593,4.613,1.351,9.26,2.37,12.85c0.525,1.817,1.119,3.36,1.877,4.616
	c0.397,0.625,0.822,1.184,1.416,1.647c0.565,0.459,1.352,0.791,2.21,0.791l0.822-0.101c0.493-0.133,1.251-0.196,2.21-0.196
	c3.854-0.035,10.347,1.219,15.717,2.47c2.703,0.595,5.141,1.221,6.921,1.713c1.745,0.464,2.831,0.758,2.831,0.758l2.869,0.822
	l-6.594-34.494l21.748-4.087l4.744,34.795l23.727-1.845l6.324-26.822l27.978,1.384l-52.293,187.915L556.37,865.309L558.184,865.537
	l0.064-1.809L558.184,865.537"/>
<path fill="#BAB683" d="M412.313,860.761c0,0,19.079-110.484,19.476-187.189c0.361-70.448-17.862-228.938-22.64-230.125
	c-17.625-4.38-67.709-4.215-103.99-4.052c-21.745,0.065-38.518,0.165-40.294-0.725c-4.78-2.371-36.182,139.905-36.182,244.025
	c0,66.794-0.791,183.239,1.615,186.831C232.673,873.081,412.313,860.761,412.313,860.761"/>
<path fill="#79007F" d="M412.313,860.761l1.813,0.329c0-0.064,19.11-110.55,19.507-187.519c0-0.694,0-1.384,0-2.109
	c0-35.85-4.483-92.59-9.557-140.566c-2.534-23.984-5.237-45.765-7.575-61.646c-1.188-7.944-2.274-14.402-3.233-18.981
	c-0.492-2.274-0.922-4.087-1.352-5.403c-0.196-0.694-0.429-1.223-0.656-1.716l-0.494-0.723c-0.232-0.264-0.53-0.593-1.188-0.758
	c-7.414-1.844-19.871-2.867-34.666-3.46c-14.727-0.594-31.694-0.727-47.841-0.727c-15.091,0-29.426,0.132-40.562,0.132
	c-6.029,0-11.139-0.031-14.86-0.164c-1.845-0.064-3.36-0.132-4.415-0.229c-0.561-0.036-0.99-0.101-1.283-0.136l-0.3-0.064
	l-0.028-0.033l-0.233,0.625l0.297-0.593l-0.063-0.033l-0.233,0.625l0.297-0.593l-0.958-0.197c-0.593,0-1.051,0.232-1.315,0.426
	c-0.562,0.465-0.822,0.857-1.123,1.351c-0.558,0.958-1.087,2.241-1.713,3.955c-2.27,6.393-5.502,18.716-9.092,35.159
	c-10.712,49.361-24.616,135.525-24.616,204.979c0,26.726-0.132,61.42-0.132,93.645c0,24.119,0.068,46.891,0.329,63.927
	c0.136,8.499,0.299,15.552,0.528,20.658c0.101,2.538,0.229,4.612,0.393,6.129c0.068,0.758,0.136,1.382,0.233,1.908l0.165,0.759
	c0.099,0.231,0.167,0.464,0.36,0.825c0.465,0.626,0.858,0.69,1.123,0.826c0.493,0.196,0.922,0.261,1.48,0.329
	c1.616,0.229,4.154,0.293,7.68,0.293c36.476,0,173.381-9.389,173.417-9.389l1.45-0.1l0.229-1.416L412.313,860.761l-0.099-1.813
	c-0.033,0-2.142,0.133-5.965,0.396c-26.689,1.81-135.622,8.996-167.22,8.996c-2.639,0-4.713-0.067-6.096-0.164
	c-0.726-0.035-1.252-0.1-1.549-0.165l-0.164-0.035h-0.036l-0.43,1.219l1.06-0.69c-0.43-0.562-0.63-0.493-0.63-0.528l-0.43,1.219
	l1.06-0.69l-0.924,0.595l1.022-0.397l-0.099-0.197l-0.924,0.595l1.022-0.397c-0.067-0.266-0.265-1.42-0.363-3
	c-0.923-11.434-1.152-48.467-1.152-89.361c0-32.225,0.13-66.887,0.13-93.645c0-51.435,7.712-112.39,16.045-160.431
	c4.188-24.02,8.538-44.812,12.128-59.571c1.813-7.384,3.426-13.251,4.744-17.234c0.662-1.98,1.251-3.497,1.681-4.418
	c0.232-0.458,0.43-0.758,0.498-0.855l0.028-0.033l-0.923-0.891v1.22c0.726-0.037,0.895-0.33,0.923-0.33l-0.923-0.891v1.22v-1.552
	l-0.689,1.387l0.689,0.165v-1.552l-0.689,1.387l0.097,0.033l-0.097-0.033c0.492,0.229,0.854,0.293,1.318,0.361
	c1.516,0.265,4.051,0.397,7.676,0.461c3.594,0.101,8.17,0.132,13.477,0.132c11.136,0,25.506-0.132,40.562-0.132
	c16.114,0,33.05,0.132,47.713,0.727c14.629,0.593,27.086,1.648,33.904,3.36l0.332-1.319l-1.022,0.89
	c0.064,0.068,0.196,0.297,0.69,0.429l0.332-1.319l-1.022,0.89l0.265-0.231l-0.301,0.2l0.036,0.031l0.265-0.231l-0.301,0.2
	c0.067,0.099,0.493,1.118,0.858,2.602c1.516,5.634,3.626,18.52,5.863,35.521c6.822,51.005,15.289,139.677,15.289,188.572
	c0,0.694,0,1.415,0,2.109c-0.193,38.188-5.07,84.979-9.884,122.147c-2.404,18.584-4.775,34.759-6.593,46.324
	c-0.886,5.767-1.644,10.38-2.173,13.544c-0.493,3.164-0.79,4.877-0.79,4.877L412.313,860.761l-0.099-1.813L412.313,860.761"/>
<path fill="#B49CFF" d="M238.236,425.159c0,0,23.848,15.105,45.313,15.105c12.099,0,66.576,3.855,108.106,0.795
	c32.118-2.367,54.606-11.434,55.643-13.511l-38.95,3.972c0,0-34.977-187.599-37.361-201.114
	c-2.385-13.514-14.529-99.264-16.692-110.991c-2.085-11.327-4.173-29.212-4.173-29.212L336.808,137.4
	c0,0-10.332,84.261-14.309,91.415c-3.976,7.154-31.002,103.338-31.002,103.338s-19.077,79.49-21.462,84.259
	c-2.385,4.77-3.976,9.539-3.976,9.539L238.236,425.159z"/>
<path fill="#00007C" d="M238.236,425.159l-0.979,1.549c0.057,0.032,6.085,3.85,14.855,7.683c8.777,3.825,20.275,7.694,31.438,7.704
	c8.502-0.002,38.984,1.974,70.83,1.978c12.652-0.004,25.542-0.315,37.408-1.188c16.203-1.193,29.969-4.076,39.852-6.932
	c4.948-1.431,8.916-2.85,11.762-4.069c1.431-0.611,2.571-1.168,3.446-1.676c0.44-0.254,0.812-0.493,1.145-0.758
	c0.329-0.276,0.634-0.509,0.944-1.088l1.49-2.974l-42.263,4.311l0.185,1.82l1.803-0.336c0,0-0.551-2.933-1.509-8.088
	c-6.729-36.083-33.772-181.214-35.854-193.007c-1.18-6.683-4.819-31.533-8.423-56.115c-3.604-24.607-7.172-48.93-8.273-54.891
	c-1.03-5.604-2.074-12.891-2.854-18.762c-0.779-5.874-1.298-10.32-1.302-10.331l-3.578-0.284l-13.354,47.332l-0.014,0.14
	c0,0.014-0.645,5.261-1.677,13.268c-1.545,12.008-3.959,30.194-6.354,46.028c-1.195,7.916-2.389,15.247-3.465,20.909
	c-0.537,2.828-1.048,5.239-1.502,7.079c-0.439,1.822-0.904,3.148-1.098,3.466c-0.34,0.621-0.68,1.44-1.115,2.579
	c-3.179,8.399-10.654,33.591-17.384,56.813c-6.721,23.2-12.664,44.337-12.664,44.341l-0.006,0.033l-0.012,0.035
	c-0.003,0.013-1.189,4.966-3.018,12.49c-2.735,11.288-6.899,28.332-10.601,42.994c-1.852,7.332-3.582,14.065-4.962,19.182
	c-0.694,2.556-1.294,4.709-1.773,6.316c-0.239,0.802-0.451,1.467-0.622,1.975c-0.165,0.493-0.312,0.854-0.344,0.915
	c-2.453,4.909-4.059,9.731-4.076,9.774l1.738,0.579l0.05-1.83l-34.48-0.979l5.628,3.564L238.236,425.159l-0.051,1.831l29.182,0.832
	l0.43-1.291c0,0,0.093-0.271,0.271-0.779c0.543-1.522,1.866-5.048,3.604-8.517c0.251-0.511,0.451-1.108,0.74-1.994
	c2.077-6.479,7.261-27.056,11.97-46.132c4.702-19.056,8.893-36.526,8.896-36.527l-1.781-0.428l1.763,0.496
	c0.004-0.016,1.688-6.008,4.284-15.137c3.894-13.69,9.824-34.393,15.155-52.335c2.664-8.97,5.177-17.252,7.208-23.613
	c1.011-3.178,1.904-5.88,2.635-7.932c0.715-2.037,1.309-3.501,1.559-3.93c0.379-0.695,0.651-1.504,0.973-2.582
	c1.15-3.978,2.538-11.44,4.019-20.549c4.423-27.282,9.531-68.938,9.531-68.948l-1.815-0.223l1.763,0.497l13.314-47.198l-1.763-0.497
	l-1.816,0.213c0,0.02,2.085,17.898,4.189,29.33c1.062,5.767,4.648,30.183,8.252,54.759c3.604,24.606,7.234,49.388,8.438,56.22
	c2.389,13.549,37.362,201.12,37.362,201.131l0.311,1.654l40.627-4.144l-0.187-1.819l-1.637-0.822l0.818,0.407l-0.669-0.628
	l-0.149,0.222l0.818,0.407l-0.669-0.628l-0.082,0.068c-0.239,0.197-0.884,0.593-1.791,1.04c-3.223,1.609-9.84,4.062-18.856,6.314
	c-9.023,2.259-20.486,4.344-33.558,5.306c-11.742,0.865-24.549,1.18-37.145,1.176c-31.748,0.004-62.014-1.97-70.83-1.973
	c-10.308,0.01-21.459-3.673-29.972-7.398c-4.259-1.862-7.862-3.726-10.394-5.119c-1.266-0.698-2.267-1.277-2.946-1.681
	c-0.677-0.403-1.019-0.622-1.022-0.622L238.236,425.159l-0.051,1.831L238.236,425.159z"/>
<polyline fill="#00007C" points="354.956,107.823 370.459,16.606 356.021,14.153 340.52,105.371 "/>
<polygon fill="#FFE000" points="363.833,47.574 370.395,15.38 422.261,36.247 "/>
<polygon fill="#FF9700" points="363.833,47.574 367.419,48.305 373.104,20.416 409.387,35.014 363.136,43.979 363.833,47.574 
	367.419,48.305 363.833,47.574 364.53,51.167 435.136,37.481 367.684,10.344 359.153,52.211 364.53,51.167 "/>
<polygon fill="#F3FF00" points="498.175,647.736 483.867,693.843 520.436,693.843 533.149,647.736 "/>
<polygon fill="#62007A" points="498.175,647.736 496.428,647.192 481.382,695.674 521.831,695.674 535.556,645.905 496.828,645.905 
	496.428,647.192 498.175,647.736 498.175,649.566 530.747,649.566 519.04,692.013 486.353,692.013 499.924,648.28 498.175,647.736 
	498.175,649.566 "/>
<path fill="#F9FF00" d="M487.05,751.871c0,0,34.974-10.333,39.742-12.722c4.77-2.381-10.333,46.107-10.333,46.107l-31.799,7.157
	L487.05,751.871z"/>
<path fill="#79007F" d="M487.05,751.871l0.514,1.759c0.008-0.004,8.753-2.588,18.105-5.474c4.676-1.444,9.504-2.965,13.476-4.272
	c1.984-0.658,3.754-1.259,5.195-1.78c1.444-0.522,2.524-0.944,3.271-1.315l-0.511-1.021v1.127l0.515-0.106l-0.515-1.021v1.127
	v-1.423l-0.979,1.036c0.208,0.216,0.65,0.404,0.979,0.387v-1.423l-0.979,1.036l0.77-0.811l-1.022,0.461l0.253,0.35l0.77-0.811
	l-1.022,0.461l0.296-0.132l-0.318,0.081l0.022,0.051l0.296-0.132l-0.318,0.081c0.011,0.037,0.05,0.29,0.046,0.655
	c0.016,1.724-0.665,5.559-1.708,10.05c-1.574,6.778-3.939,15.273-5.918,22.053c-0.989,3.389-1.876,6.354-2.521,8.47
	c-0.64,2.112-1.032,3.375-1.036,3.378l1.751,0.544l-0.402-1.784l-29.422,6.617l2.238-38.111L487.05,751.871l0.514,1.759
	L487.05,751.871l-1.83-0.108l-2.525,42.969l35.195-7.92l0.314-1.007c0.004-0.012,2.826-9.064,5.649-19.179
	c1.411-5.059,2.824-10.38,3.894-14.983c1.062-4.634,1.791-8.438,1.805-10.88c-0.006-0.655-0.035-1.22-0.25-1.863
	c-0.118-0.321-0.289-0.69-0.665-1.052c-0.357-0.363-0.989-0.628-1.537-0.614c-0.468,0.004-0.836,0.136-1.13,0.282
	c-0.442,0.225-1.498,0.646-2.878,1.148c-4.866,1.759-14.041,4.633-21.955,7.053c-7.924,2.425-14.596,4.395-14.609,4.402
	l-1.229,0.361l-0.078,1.282L487.05,751.871z"/>
<path fill="#FCEF00" d="M134.101,641.379l31.8-11.133c0,0,2.386,33.386,3.179,37.362c0.797,3.975-30.207,8.745-30.207,8.745
	L134.101,641.379z"/>
<path fill="#79007F" d="M134.101,641.379l0.608,1.728l31.796-11.13l-0.604-1.73l-1.823,0.133c0,0,0.593,8.351,1.29,17.2
	c0.348,4.427,0.72,8.98,1.056,12.681c0.342,3.729,0.625,6.493,0.861,7.706l1.041-0.208l-1.062,0.004l0.021,0.208l1.041-0.212
	l-1.062,0.004h0.933l-0.851-0.393l-0.082,0.393h0.933l-0.851-0.393l0.468,0.218l-0.432-0.29l-0.036,0.072l0.468,0.218l-0.432-0.29
	l0.021,0.01l-0.018-0.014l-0.004,0.004l0.021,0.01l-0.018-0.014c-0.055,0.094-0.669,0.544-1.596,0.951
	c-3.303,1.516-10.229,3.16-16.17,4.333c-2.983,0.594-5.743,1.087-7.755,1.431c-2.013,0.343-3.265,0.536-3.272,0.536l0.28,1.81
	l1.815-0.243l-4.77-34.981L134.101,641.379l0.608,1.728L134.101,641.379l-1.812,0.243l5.022,36.826l1.838-0.285
	c0.021,0,7.602-1.166,15.224-2.84c3.819-0.837,7.642-1.795,10.605-2.827c1.483-0.522,2.748-1.052,3.771-1.671
	c0.513-0.313,0.97-0.65,1.378-1.108c0.393-0.443,0.793-1.101,0.797-1.955l-0.051-0.512c-0.159-0.771-0.475-3.671-0.804-7.322
	c-0.5-5.513-1.087-12.971-1.544-19.046c-0.466-6.074-0.799-10.754-0.801-10.766l-0.169-2.387l-35.471,12.413l0.204,1.479
	L134.101,641.379z"/>
<polygon fill="#FFF800" points="146.029,724.842 177.825,724.049 177.026,768.567 143.641,767.768 "/>
<polygon fill="#79007F" points="146.029,724.842 146.072,726.672 175.961,725.928 175.232,766.69 145.575,765.982 147.853,724.944 
	146.029,724.842 146.072,726.672 146.029,724.842 144.198,724.741 141.71,769.554 178.825,770.441 179.687,722.171 144.292,723.054 
	144.198,724.741 "/>
<path fill="#F3FF00" d="M310.576,669.202l31.001-10.336c0,0-3.977,34.184-3.977,40.541c0,6.356-27.822,6.356-27.822,6.356
	L310.576,669.202z"/>
<path fill="#62007A" d="M310.576,669.202l0.579,1.734l31.001-10.337l-0.579-1.733l-1.816-0.212c0,0.004-0.998,8.554-1.991,17.905
	c-0.497,4.678-0.997,9.551-1.37,13.665c-0.371,4.126-0.625,7.438-0.629,9.183c-0.007,0.078,0.004,0.239-0.508,0.671
	c-0.865,0.727-3.032,1.549-5.656,2.103c-3.939,0.861-8.938,1.312-12.906,1.531c-1.988,0.113-3.726,0.167-4.963,0.196
	c-1.232,0.025-1.956,0.025-1.956,0.025l-0.003,1.83l1.83,0.043l0.799-36.568L310.576,669.202l0.579,1.734L310.576,669.202
	l-1.831-0.043l-0.837,38.435h1.87c0.04,0,7.036,0.004,14.123-0.805c3.546-0.41,7.107-1.004,9.946-1.977
	c1.423-0.49,2.674-1.062,3.702-1.878c1.01-0.781,1.889-2.016,1.882-3.527c-0.003-1.431,0.243-4.781,0.615-8.851
	c0.558-6.124,1.394-14.003,2.092-20.339c0.697-6.339,1.254-11.13,1.254-11.14l0.337-2.861l-34.956,11.655l-0.028,1.287
	L310.576,669.202z"/>
<path fill="#F3FF00" d="M306.6,600.836l30.208,0.793c0,0,0.793-78.691-4.77-90.62c-2.124-4.555-16.692-8.74-19.077,6.36
	C312.339,521.299,306.6,600.836,306.6,600.836z"/>
<path fill="#62007A" d="M306.6,600.836l-0.046,1.83l32.066,0.844l0.018-1.859c0-0.006,0.039-3.89,0.039-10.063
	c0-10.815-0.117-28.657-0.783-44.985c-0.332-8.167-0.801-15.949-1.457-22.313c-0.329-3.182-0.709-6.014-1.152-8.374
	c-0.443-2.366-0.93-4.247-1.586-5.678c-0.801-1.651-2.289-2.845-4.095-3.775c-1.813-0.908-3.994-1.493-6.289-1.497
	c-2.567-0.004-5.319,0.768-7.572,2.748c-2.261,1.982-3.92,5.078-4.591,9.372c-0.101,0.654-0.246,2.262-0.465,4.845
	c-1.516,17.888-5.914,78.771-5.914,78.778l-0.136,1.909l1.917,0.05L306.6,600.836l1.827,0.136c0-0.015,0.357-4.974,0.904-12.492
	c0.822-11.276,2.071-28.281,3.172-42.837c0.546-7.274,1.057-13.939,1.465-18.966c0.2-2.511,0.375-4.612,0.516-6.175
	c0.136-1.545,0.246-2.617,0.285-2.847c0.587-3.686,1.892-5.874,3.387-7.189c1.498-1.308,3.289-1.834,5.159-1.838
	c1.651-0.007,3.335,0.443,4.645,1.105c1.319,0.644,2.216,1.555,2.42,2.052c0.422,0.891,0.901,2.593,1.31,4.801
	c1.458,7.78,2.309,21.89,2.77,36.312c0.466,14.437,0.558,29.25,0.558,38.689c0,6.159-0.039,10.013-0.039,10.028l1.831,0.014
	l0.051-1.831l-30.212-0.793L306.6,600.836l1.827,0.136L306.6,600.836z"/>
<path fill="#CAACB9" d="M312.949,764.349c-0.039,0-0.074,0-0.11,0c-1.452,0-2.867,0.132-4.251,0.43
	c-3,0.657-5.997,2.866-8.831,6.159c-2.8,3.294-5.402,7.644-7.712,12.356c-4.577,9.356-7.937,20-9.919,26.361
	c-0.922,2.899-1.68,8.104-2.237,14.168c-0.562,6.032-0.923,12.982-1.154,19.505c-0.373,9.846-0.462,18.826-0.486,22.659l78.71-4.552
	c-0.236-1.984-0.529-5.38-0.529-10.199c0.035-1.682-0.558-6.061-1.516-11.562c-0.952-5.535-2.273-12.325-3.689-19.279
	c-2.896-13.872-6.258-28.366-8.203-34.594c-1.615-5.143-5.999-10.645-11.633-14.698
	C325.821,767.041,319.081,764.349,312.949,764.349"/>
<path fill="#7D387D" d="M278.248,865.987c0.024-3.833,0.113-12.813,0.486-22.659c0.231-6.522,0.593-13.473,1.154-19.505
	c0.558-6.063,1.315-11.269,2.237-14.168c1.982-6.361,5.342-17.005,9.919-26.361c2.31-4.713,4.912-9.062,7.712-12.356
	c2.834-3.293,5.831-5.502,8.831-6.159c1.384-0.298,2.799-0.43,4.251-0.43c0.036,0,0.071,0,0.11,0c6.132,0,12.872,2.692,18.438,6.754
	c5.634,4.054,10.018,9.556,11.633,14.698c1.945,6.228,5.307,20.722,8.203,34.594c1.416,6.954,2.737,13.744,3.689,19.279
	c0.958,5.502,1.551,9.881,1.516,11.562c0,4.819,0.293,8.215,0.529,10.199L278.248,865.987 M312.839,760.658
	c-1.717,0-3.397,0.198-5.041,0.558c-4.154,0.923-7.713,3.69-10.809,7.352c-4.68,5.47-8.47,13.078-11.53,20.494
	c-3.068,7.444-5.343,14.729-6.821,19.507c-1.087,3.46-1.817,8.73-2.374,14.923c-1.545,16.64-1.694,39.328-1.714,43.704
	c26.018-1.208,59.055-3.174,86.238-4.887c-0.201-1.283-0.697-4.955-0.697-11.072c0-2.274-0.595-6.558-1.584-12.192
	c-2.865-16.805-8.964-44.577-11.996-54.331c-1.974-6.228-6.85-12.127-12.949-16.574C327.433,763.69,320.055,760.691,312.839,760.658
	"/>
<path fill="#69007C" d="M360.788,862.309c-27.184,1.713-60.221,3.679-86.238,4.887c0,0.48,0,0.737,0,0.747l0.064,0.43l0.361,1.484
	l1.516-0.101l84.785-4.877l-0.428-2.073v-0.136C360.833,862.584,360.812,862.462,360.788,862.309"/>
<line fill="#D1A7D1" x1="341.476" y1="782.075" x2="283.049" y2="810.691"/>
<polyline fill="#62007A" points="340.673,780.431 282.248,809.047 283.857,812.337 342.282,783.72 "/>
<line fill="#D1A7D1" x1="347.14" y1="810.398" x2="281.859" y2="831.857"/>
<polyline fill="#62007A" points="346.567,808.658 281.286,830.12 282.431,833.599 347.712,812.137 "/>
<line fill="#D1A7D1" x1="281.562" y1="851.533" x2="353.104" y2="842.591"/>
<polyline fill="#62007A" points="281.787,853.349 353.329,844.406 352.874,840.774 281.333,849.716 "/>
<line fill="#D1A7D1" x1="323.293" y1="768.961" x2="331.044" y2="861.071"/>
<polyline fill="#62007A" points="321.47,769.114 329.221,861.226 332.868,860.918 325.116,768.807 "/>
<line fill="#D1A7D1" x1="298.852" y1="775.818" x2="302.428" y2="861.367"/>
<polyline fill="#62007A" points="297.021,775.893 300.597,861.447 304.258,861.293 300.679,775.739 "/>
<path fill="#6D6C41" d="M247.378,533.269c8.006-46.515,19.078-88.832,19.078-88.832l20.269,3.776c0,0-31.892,201.856-32.985,244.04
	c-1.588,61.21,0,174.086,0,174.086l-19.872,0.4c0,0-1.792-174.683,0.991-225.56C235.979,620.653,240.152,575.244,247.378,533.269z"
	/>
<path fill="#6F60AD" d="M343.958,124.681c0,0-0.15,10.486-7.15,48.49c-4.556,24.725-9.074,57.094-20.669,90.621
	c-9.55,27.612-40.541,143.083-43.723,158.188c-2.646,12.568-20.665,7.155-20.665,7.155s7.337,3.668,20.272,6.36
	c9.538,1.984,17.884,2.385,17.884,2.385s42.131-120.83,47.693-156.6c8.438-54.234,2.868-60.28,11.127-105.724L343.958,124.681z"/>
<path fill="#6D7239" d="M572.105,572.219l20.666-0.794l6.356-27.029l22.26-0.793c0,0-48.488,162.962-49.282,167.731
	s-19.081,141.489-18.284,144.671c0.794,3.182-21.465,2.385-21.465,2.385s14.308-149.444,19.874-179.647
	C557.797,648.529,572.105,572.219,572.105,572.219z"/>
<path fill="#00007C" d="M287.997,376.323c0.13,0.038,9.324,4.675,18.585,4.708c2.573-0.002,5.178-0.369,7.594-1.376
	c2.416-1.003,4.627-2.681,6.268-5.149l-1.462-0.975l0.6,1.652c0.258-0.087,0.627-0.313,0.866-0.68l-1.466-0.972l0.6,1.652
	l-0.557-1.544v1.645l0.557-0.101l-0.557-1.544v1.645v-1.176l-0.271,1.149l0.271,0.026v-1.176l-0.271,1.149l0.027-0.14l-0.039,0.137
	l0.012,0.002l0.027-0.14l-0.039,0.137c0.062,0.015,0.454,0.17,0.948,0.404c1.776,0.831,5.184,2.61,9.231,4.168
	c4.054,1.559,8.784,2.939,13.449,2.946c4.42,0.018,8.924-1.324,12.211-5.097l-1.177-1.03l0.451,1.502l0.729-0.473l-1.181-1.029
	l0.451,1.502l-0.33-1.098v1.153l0.33-0.055l-0.33-1.098v1.153v-0.224l-0.025,0.221l0.025,0.002v-0.224l-0.025,0.221
	c0.14,0.002,1.03,0.259,2.12,0.651c3.368,1.171,9.308,3.449,15.636,3.458c5.166,0.025,10.786-1.632,14.959-6.766l-2.832-2.317
	c-3.422,4.144-7.644,5.396-12.127,5.423c-3.747,0.002-7.569-0.964-10.68-1.966c-1.559-0.501-2.937-1.005-4.069-1.399
	c-0.571-0.198-1.079-0.367-1.547-0.499c-0.477-0.127-0.873-0.235-1.435-0.245l-0.729,0.104c-0.285,0.084-0.664,0.268-0.973,0.625
	c-2.478,2.81-5.688,3.824-9.453,3.843c-4.711,0.011-10.061-1.764-14.344-3.599c-2.145-0.913-4.022-1.834-5.471-2.537
	c-0.721-0.351-1.337-0.649-1.848-0.875l-0.729-0.293c-0.254-0.077-0.45-0.17-0.954-0.186l-0.689,0.12
	c-0.29,0.098-0.684,0.345-0.941,0.736c-1.237,1.847-2.792,3.025-4.627,3.797c-1.833,0.768-3.957,1.096-6.185,1.094
	c-4.011,0.005-8.302-1.069-11.548-2.163c-1.624-0.545-2.989-1.094-3.941-1.502c-0.479-0.204-0.851-0.372-1.1-0.487l-0.365-0.175
	L287.997,376.323z"/>
<path fill="#00007C" d="M284.823,413.686c0.125,0.039,9.323,4.672,18.58,4.708c2.574-0.002,5.178-0.372,7.594-1.38
	c2.413-1.001,4.627-2.678,6.268-5.148l-1.459-0.972l0.602,1.652c0.258-0.089,0.621-0.315,0.857-0.68l-1.459-0.972l0.602,1.652
	L315.842,411v1.645l0.565-0.1L315.842,411v1.645v-1.172l-0.272,1.145l0.272,0.028v-1.172l-0.272,1.145l0.033-0.136l-0.039,0.136
	h0.006l0.033-0.136l-0.039,0.136c0.061,0.014,0.449,0.171,0.943,0.403c1.779,0.833,5.188,2.606,9.23,4.167
	c4.06,1.559,8.789,2.938,13.459,2.945c4.412,0.023,8.916-1.322,12.206-5.094l-1.059-0.923v1.448c0.054-0.014,0.5,0.05,1.059-0.525
	l-1.059-0.923v1.448v-0.221l-0.025,0.221h0.025v-0.221l-0.025,0.221c0.14,0,1.034,0.258,2.12,0.651
	c3.368,1.174,9.307,3.448,15.636,3.458c5.17,0.025,10.786-1.634,14.962-6.764l-2.831-2.32c-3.422,4.147-7.647,5.397-12.131,5.423
	c-3.747,0.003-7.569-0.962-10.68-1.967c-1.56-0.5-2.933-1.003-4.069-1.397c-0.571-0.196-1.079-0.364-1.545-0.5
	c-0.479-0.126-0.875-0.233-1.437-0.243c-0.361,0.014-1.022,0.014-1.702,0.725c-2.475,2.814-5.685,3.825-9.445,3.844
	c-4.717,0.014-10.069-1.763-14.349-3.597c-2.142-0.915-4.021-1.831-5.466-2.534c-0.73-0.354-1.341-0.651-1.854-0.876l-0.729-0.293
	c-0.257-0.078-0.449-0.171-0.958-0.187l-0.692,0.122c-0.287,0.1-0.68,0.344-0.935,0.737c-1.24,1.844-2.793,3.024-4.63,3.797
	c-1.83,0.764-3.955,1.094-6.182,1.094c-4.008,0.003-8.299-1.073-11.545-2.167c-1.627-0.544-2.992-1.094-3.947-1.502
	c-0.472-0.2-0.847-0.372-1.098-0.486l-0.367-0.175L284.823,413.686z"/>
<path fill="#00007C" d="M303.9,347.06c0.125,0.039,5.902,2.981,11.92,3.014c1.673,0,3.39-0.238,5.01-0.914
	c1.615-0.668,3.12-1.811,4.222-3.47l-0.006,0.011l0.01-0.018l-1.487-0.982l0.618,1.673c0.265-0.093,0.63-0.324,0.869-0.691
	l-1.487-0.982l0.618,1.673l-0.593-1.61v1.717l0.593-0.107l-0.593-1.61v1.717v-1.129l-0.377,1.082
	c0.004-0.011,0.004,0.032,0.377,0.048v-1.129l-0.377,1.082c0.126,0.034,0.892,0.4,1.825,0.857c2.896,1.38,8.011,3.844,13.146,3.871
	c2.882,0.02,5.938-0.881,8.146-3.42l-1.178-1.03v1.594c0.11-0.015,0.598,0.036,1.178-0.565l-1.178-1.029v1.594v-0.825l-0.096,0.818
	l0.096,0.006v-0.825l-0.096,0.818l0.004,0.002c0.117,0.015,0.682,0.192,1.376,0.44c2.138,0.746,5.807,2.121,9.796,2.129
	c3.361,0.028,7.13-1.085,9.882-4.478l-2.831-2.32c-1.994,2.406-4.375,3.11-7.051,3.136c-2.224,0.004-4.551-0.579-6.465-1.195
	c-0.957-0.309-1.808-0.621-2.53-0.869c-0.357-0.126-0.687-0.234-1.001-0.324c-0.328-0.084-0.608-0.17-1.084-0.179
	c-0.304,0.015-0.93,0.001-1.584,0.69c-1.394,1.575-3.156,2.147-5.384,2.166c-2.781,0.011-6.063-1.061-8.695-2.193
	c-1.321-0.562-2.485-1.13-3.39-1.571c-0.453-0.219-0.84-0.407-1.18-0.559l-0.507-0.204c-0.194-0.056-0.348-0.136-0.822-0.151
	l-0.677,0.12c-0.281,0.098-0.668,0.341-0.915,0.726l0.008-0.013l-0.004,0.005c-0.701,1.042-1.551,1.682-2.589,2.124
	c-1.037,0.433-2.273,0.631-3.597,0.629c-2.389,0.005-5.013-0.646-7.001-1.315c-0.993-0.335-1.83-0.671-2.413-0.919l-0.667-0.297
	l-0.216-0.102L303.9,347.06L303.9,347.06z"/>
<path fill="#00007C" d="M308.67,316.853c0.124,0.039,5.906,2.982,11.919,3.015c1.674-0.001,3.391-0.239,5.011-0.914
	c1.615-0.668,3.121-1.811,4.222-3.469l-0.007,0.01l0.011-0.018l-1.487-0.982l0.618,1.674c0.265-0.092,0.629-0.324,0.869-0.691
	l-1.487-0.982l0.618,1.674l-0.593-1.61v1.717l0.593-0.107l-0.593-1.61v1.717v-1.129l-0.377,1.082
	c0.005-0.01,0.005,0.033,0.377,0.048v-1.129l-0.377,1.082c0.126,0.034,0.892,0.4,1.824,0.856c2.896,1.382,8.012,3.844,13.146,3.873
	c2.882,0.018,5.938-0.884,8.145-3.418l-1.177-1.03v1.591c0.115-0.015,0.602,0.035,1.177-0.563l-1.177-1.028v1.591v-0.825
	l-0.092,0.818l0.092,0.006v-0.825l-0.092,0.818v0.002c0.117,0.014,0.682,0.193,1.376,0.442c2.142,0.746,5.807,2.119,9.797,2.129
	c3.36,0.025,7.129-1.088,9.882-4.48l-2.832-2.32c-1.995,2.406-4.376,3.111-7.05,3.136c-2.226,0.006-4.552-0.577-6.466-1.194
	c-0.957-0.307-1.808-0.621-2.526-0.869c-0.361-0.125-0.69-0.234-1.005-0.323c-0.329-0.086-0.608-0.17-1.084-0.179
	c-0.308,0.014-0.93,0.004-1.579,0.689c-1.399,1.576-3.161,2.148-5.389,2.168c-2.781,0.01-6.063-1.062-8.695-2.193
	c-1.322-0.564-2.485-1.132-3.39-1.571c-0.453-0.221-0.84-0.408-1.18-0.558l-0.508-0.207c-0.193-0.055-0.347-0.137-0.821-0.151
	l-0.673,0.117c-0.285,0.101-0.672,0.344-0.919,0.727l0.008-0.011l-0.004,0.006c-0.701,1.04-1.549,1.682-2.589,2.122
	c-1.037,0.434-2.273,0.631-3.598,0.631c-2.388,0.005-5.012-0.645-7-1.317c-0.993-0.335-1.829-0.669-2.414-0.919l-0.667-0.297
	l-0.215-0.102L308.67,316.853L308.67,316.853z"/>
<path fill="#00007C" d="M319.052,291.337c0.123,0.034,5.225,2.433,10.548,2.459c1.48-0.001,3.003-0.194,4.448-0.75
	c1.444-0.551,2.812-1.5,3.825-2.908l-0.008,0.011l0.015-0.024l-1.459-1.036l0.579,1.696c0.247-0.082,0.616-0.286,0.88-0.66
	l-1.459-1.036l0.579,1.696l-0.558-1.63v1.723l0.558-0.092l-0.558-1.63v1.723v-1.17l-0.357,1.127c0.004-0.01,0.008,0.03,0.357,0.043
	v-1.17l-0.357,1.127c0.093,0.021,0.77,0.317,1.592,0.69c2.556,1.125,7.075,3.134,11.623,3.157c2.549,0.011,5.27-0.708,7.286-2.841
	l-1.215-1.158l0.45,1.622l0.769-0.467l-1.219-1.154l0.45,1.622l-0.387-1.375v1.432l0.387-0.057l-0.387-1.375v1.432v-0.553
	l-0.092,0.548l0.092,0.005v-0.553l-0.092,0.548c0.092,0.01,0.589,0.155,1.201,0.357c1.883,0.606,5.123,1.725,8.652,1.732
	c2.97,0.019,6.328-0.875,8.823-3.708l-2.738-2.431c-1.681,1.877-3.739,2.46-6.085,2.478c-1.945,0.003-3.988-0.467-5.664-0.967
	c-0.845-0.249-1.595-0.502-2.227-0.706l-0.892-0.265c-0.292-0.068-0.543-0.14-0.979-0.147l-0.6,0.081l-0.905,0.544
	c-1.154,1.206-2.682,1.683-4.63,1.696c-2.435,0.009-5.312-0.857-7.622-1.775c-1.158-0.456-2.181-0.917-2.976-1.274
	c-0.4-0.179-0.744-0.331-1.043-0.456l-0.459-0.167c-0.179-0.046-0.317-0.117-0.758-0.131l-0.622,0.102
	c-0.269,0.087-0.649,0.3-0.922,0.688l0.007-0.011v-0.001c-0.572,0.786-1.279,1.287-2.174,1.635
	c-0.894,0.346-1.974,0.507-3.132,0.505c-2.095,0.004-4.398-0.521-6.136-1.065c-0.871-0.27-1.609-0.542-2.116-0.742l-0.586-0.239
	l-0.187-0.081L319.052,291.337z"/>
<path fill="#00007C" d="M322.321,267.051c0.106,0.029,4.529,1.829,9.13,1.848c1.284,0,2.597-0.142,3.862-0.564
	c1.258-0.417,2.481-1.141,3.418-2.269l0.006-0.01l-1.386-1.139l0.507,1.723c0.223-0.064,0.58-0.217,0.879-0.584l-1.386-1.139
	l0.507,1.723l-0.485-1.652v1.722l0.485-0.07l-0.485-1.652v1.722v-1.178l-0.315,1.146l0.315,0.033v-1.178l-0.315,1.146
	c0.068,0.013,0.654,0.236,1.367,0.514c2.208,0.845,6.134,2.354,10.06,2.374c2.21,0.001,4.556-0.513,6.394-2.183l-1.145-1.253
	l0.4,1.652l0.744-0.4l-1.145-1.251l0.4,1.652l-0.34-1.395v1.438l0.34-0.043l-0.34-1.395v1.438v-0.564l-0.086,0.56l0.086,0.004
	v-0.564l-0.086,0.56c0.074,0.006,0.504,0.115,1.033,0.266c1.63,0.455,4.439,1.297,7.49,1.302c2.568,0.008,5.466-0.634,7.727-2.843
	l-2.561-2.616c-1.354,1.324-3.139,1.79-5.166,1.798c-1.684,0.002-3.443-0.35-4.895-0.724c-0.726-0.188-1.373-0.376-1.923-0.529
	l-0.772-0.2c-0.255-0.052-0.473-0.105-0.848-0.111l-0.525,0.061l-0.866,0.458c-0.907,0.834-2.231,1.219-3.918,1.22
	c-2.103,0.008-4.583-0.641-6.575-1.326c-1.001-0.341-1.881-0.686-2.57-0.955c-0.343-0.134-0.645-0.25-0.908-0.343l-0.4-0.128
	c-0.154-0.037-0.278-0.09-0.657-0.099l-0.544,0.077c-0.243,0.072-0.608,0.23-0.923,0.607l0.011-0.012
	c-0.433,0.518-1.004,0.883-1.766,1.14s-1.699,0.378-2.7,0.376c-1.806,0.004-3.797-0.39-5.298-0.798
	c-0.75-0.201-1.388-0.404-1.823-0.554l-0.505-0.18l-0.157-0.059L322.321,267.051z"/>
<path fill="#00007C" d="M330.271,238.518c0.107,0.029,3.317,1.35,6.775,1.37c0.966-0.001,1.963-0.107,2.946-0.433
	c0.976-0.322,1.949-0.895,2.695-1.792l0.025-0.027l-0.014,0.017l-1.396-1.146l0.522,1.727c0.229-0.068,0.576-0.226,0.873-0.581
	l-1.396-1.146l0.522,1.727l-0.507-1.68v1.756l0.507-0.077l-0.507-1.68v1.756v-1.362l-0.365,1.319l0.365,0.043v-1.362l-0.365,1.319
	l0.067,0.024c0.426,0.145,1.67,0.677,3.15,1.149c1.501,0.474,3.299,0.924,5.162,0.929c1.666,0.003,3.504-0.386,4.956-1.707
	l0.014-0.014l-1.18-1.268l0.408,1.687l0.771-0.419l-1.18-1.268l0.408,1.687l-0.365-1.5v1.545l0.365-0.045l-0.365-1.5v1.545v-0.912
	l-0.136,0.904l0.136,0.009v-0.913l-0.136,0.904c0-0.005,0.307,0.071,0.684,0.179c1.176,0.326,3.246,0.953,5.541,0.957
	c1.928,0.008,4.173-0.479,5.932-2.196l-2.56-2.616c-0.855,0.833-1.988,1.143-3.372,1.151c-1.148,0.002-2.377-0.242-3.403-0.506
	c-0.515-0.132-0.976-0.266-1.376-0.379l-0.587-0.15c-0.2-0.042-0.375-0.085-0.723-0.093l-0.501,0.059l-0.857,0.463l1.248,1.337
	l-1.234-1.352c-0.529,0.487-1.344,0.745-2.488,0.749c-1.415,0.007-3.168-0.443-4.58-0.932c-0.71-0.242-1.334-0.487-1.833-0.68
	l-0.669-0.254l-0.322-0.103c-0.132-0.03-0.243-0.079-0.61-0.089l-0.56,0.082c-0.235,0.072-0.593,0.234-0.893,0.595l0.01-0.009
	c-0.242,0.29-0.56,0.5-1.047,0.665c-0.475,0.161-1.102,0.247-1.784,0.244c-1.233,0.004-2.634-0.27-3.692-0.558
	c-0.53-0.141-0.974-0.284-1.281-0.389l-0.35-0.126l-0.107-0.039L330.271,238.518z"/>
<path fill="#00007C" d="M334.977,212.634c0.107,0.027,2.718,1.109,5.6,1.129c0.808-0.001,1.651-0.09,2.487-0.369
	c0.838-0.277,1.688-0.772,2.338-1.555l0.012-0.012l0.008-0.006l-1.405-1.141l0.525,1.732c0.232-0.071,0.583-0.228,0.88-0.592
	l-1.405-1.141l0.525,1.732l-0.515-1.694v1.769l0.515-0.075l-0.515-1.694v1.769v-1.453l-0.39,1.408l0.39,0.045v-1.453l-0.39,1.408
	l0.031-0.119l-0.039,0.116l0.008,0.003l0.031-0.119l-0.039,0.116c0.072,0.021,0.422,0.158,0.855,0.326
	c1.333,0.502,3.6,1.369,6.009,1.385c1.396,0.001,2.976-0.324,4.241-1.472l0.014-0.012l-0.007,0.006l-1.187-1.288l0.422,1.702
	l0.765-0.415l-1.187-1.288l0.422,1.702l-0.387-1.555v1.603l0.387-0.048l-0.387-1.555v1.603v-1.088l-0.165,1.078l0.165,0.01v-1.088
	l-0.165,1.078l0.022,0.005c0.21,0.043,0.958,0.28,1.845,0.494c0.9,0.214,2.01,0.422,3.211,0.422
	c1.608,0.009,3.531-0.401,5.033-1.871l-2.56-2.618c-0.601,0.587-1.409,0.821-2.474,0.828c-0.881,0.003-1.845-0.185-2.66-0.397
	c-0.408-0.105-0.776-0.212-1.104-0.303l-0.49-0.125c-0.171-0.036-0.33-0.078-0.658-0.084l-0.5,0.061l-0.833,0.448l-0.015,0.012
	l0.021-0.019c-0.336,0.312-0.894,0.509-1.771,0.512c-1.074,0.008-2.46-0.345-3.582-0.733c-0.561-0.192-1.061-0.388-1.467-0.545
	l-0.546-0.208l-0.282-0.09c-0.129-0.026-0.229-0.076-0.59-0.085l-0.555,0.082c-0.235,0.073-0.593,0.234-0.897,0.604l1.423,1.153
	l-1.405-1.173c-0.149,0.176-0.343,0.311-0.687,0.429c-0.336,0.115-0.805,0.18-1.329,0.179c-0.944,0.004-2.053-0.21-2.89-0.438
	c-0.414-0.112-0.768-0.226-1.012-0.308l-0.275-0.098l-0.075-0.029L334.977,212.634z"/>
<path fill="#00007C" d="M336.356,185.365c0.111,0.027,2.246,0.921,4.677,0.941c0.684-0.002,1.402-0.075,2.136-0.317
	c0.725-0.239,1.475-0.678,2.052-1.37l-1.396-1.161l0.512,1.741c0.226-0.067,0.571-0.217,0.88-0.578l-1.392-1.163l0.512,1.741
	l-0.5-1.708v1.779l0.5-0.072l-0.5-1.708v1.779v-1.523l-0.408,1.473l0.408,0.05v-1.523l-0.408,1.473l0.008,0.001
	c0.235,0.081,1.083,0.442,2.08,0.761c1.02,0.32,2.25,0.634,3.58,0.638c1.183,0.002,2.562-0.274,3.671-1.284l0.015-0.01l-1.202-1.294
	l0.43,1.713l0.772-0.419l-1.202-1.294l0.43,1.713l-0.4-1.598v1.65l0.4-0.053l-0.4-1.598v1.65v-1.232l-0.187,1.217l0.187,0.015
	v-1.232l-0.187,1.217l0.016-0.087l-0.021,0.087h0.006l0.016-0.087l-0.021,0.087c0.142,0.027,0.764,0.224,1.494,0.4
	c0.746,0.178,1.67,0.353,2.688,0.353c1.359,0.009,3.026-0.341,4.33-1.619l-2.56-2.617c-0.403,0.395-0.955,0.569-1.771,0.575
	c-0.664,0.004-1.43-0.143-2.073-0.311l-0.894-0.244l-0.41-0.108l-0.612-0.074l-0.493,0.059l-0.826,0.448l0.011-0.01
	c-0.187,0.175-0.544,0.323-1.204,0.325c-0.812,0.007-1.906-0.267-2.801-0.576c-0.451-0.153-0.852-0.311-1.18-0.438l-0.457-0.174
	l-0.254-0.081c-0.119-0.025-0.211-0.072-0.568-0.082l-0.53,0.077c-0.235,0.068-0.585,0.22-0.896,0.586l-0.403,0.243
	c-0.227,0.078-0.573,0.131-0.974,0.128c-0.722,0.004-1.595-0.165-2.257-0.344c-0.332-0.089-0.61-0.178-0.801-0.244l-0.214-0.077
	l-0.053-0.02L336.356,185.365z"/>
<path fill="#6D6C41" d="M223.929,533.666h12.72c0,0-14.308,145.469-14.308,156.599c0,11.131,3.976,174.086,3.976,174.086
	l-22.261-0.795c0,0,6.357-209.855,4.77-205.086S223.929,533.666,223.929,533.666z"/>
<path fill="#9E7B51" d="M33.547,852.43h40.539l69.158,7.151c0,0,66.774,10.336,87.044,9.938c20.268-0.4,63.193-0.4,88.235-2.781
	c25.042-2.388,71.542-3.579,87.044-5.964c15.504-2.385,129.971,4.77,147.854,3.576c17.884-1.191,53.658,0,73.931-7.151
	c20.269-7.158,39.347-9.539,46.5-15.502c5.343-4.452-11.923,17.884-23.847,23.847c-11.924,5.964-47.694,9.539-59.622,9.539
	c-11.919,0-127.581,2.384-147.854,1.194c-20.269-1.194-102.544,1.189-118.043,3.574c-15.502,2.387-93.008,9.54-106.122,7.156
	c-13.114-2.385-60.809-14.31-76.311-10.73c-15.504,3.574-83.469-2.389-94.199-7.158C37.125,864.351,33.547,852.43,33.547,852.43z"/>
<path fill="#493A0E" d="M33.547,852.43v1.83h40.446l69.061,7.145l0.19-1.823l-0.283,1.81c0.012,0.002,16.089,2.491,34.874,4.979
	c18.806,2.489,40.237,4.984,51.256,4.987c0.425,0,0.837,0,1.229-0.007c20.251-0.4,63.175-0.394,88.374-2.792
	c12.45-1.184,30.334-2.082,47.026-2.976c16.716-0.896,32.189-1.784,40.127-2.999c2.002-0.314,6.32-0.473,12.062-0.469
	c31.027-0.004,104.858,4.2,129.663,4.2c2.495,0,4.501-0.042,5.971-0.135c8.835-0.594,22.277-0.594,36.046-1.345
	c13.787-0.754,27.895-2.223,38.371-5.913c10.025-3.54,19.807-5.914,28.041-8.159c8.244-2.273,14.916-4.291,19.023-7.657l0.394-0.305
	l0.004-0.004l-0.658-1.201v1.349c0.554-0.029,0.618-0.147,0.658-0.147l-0.658-1.201v1.349v-1.749l-1.323,1.137
	c0.391,0.472,1.02,0.63,1.323,0.612v-1.749l-1.323,1.137l1.302-1.119h-1.72c0,0.211,0.028,0.654,0.418,1.119l1.302-1.119h-1.72
	h1.267l-1.201-0.429l-0.065,0.429h1.267l-1.201-0.429l0.042,0.015l-0.042-0.019v0.004l0.042,0.015l-0.042-0.019
	c-0.044,0.107-0.362,0.651-0.837,1.316c-1.689,2.395-5.429,6.886-9.761,11.229c-4.32,4.352-9.312,8.596-13.305,10.58
	c-2.728,1.368-7.111,2.706-12.252,3.857c-15.432,3.479-37.824,5.495-46.551,5.487c-9.597,0-85.493,1.527-125.836,1.527
	c-10.077,0-17.948-0.097-21.909-0.332c-3.791-0.222-9.612-0.319-16.733-0.322c-15.831,0.003-38.034,0.489-57.877,1.224
	c-19.872,0.732-37.262,1.694-43.819,2.694c-13.149,2.032-72.519,7.623-96.927,7.612c-3.943,0.004-7.001-0.153-8.587-0.451
	c-5.621-1.019-17.941-3.879-31.284-6.47c-13.373-2.597-27.763-4.946-37.913-4.952c-3.003,0-5.648,0.2-7.859,0.707
	c-2.991,0.7-8.645,1.052-15.573,1.044c-12.835,0.004-30.247-1.115-45.448-2.703c-7.605-0.793-14.664-1.701-20.315-2.646
	c-5.632-0.923-9.958-1.945-11.703-2.738c-4.908-2.175-8.255-6.046-10.371-9.432c-1.052-1.688-1.796-3.239-2.268-4.362
	c-0.235-0.557-0.407-1.008-0.514-1.314l-0.116-0.344l-0.027-0.094L33.547,852.43v1.83V852.43l-1.757,0.522
	c0.037,0.106,0.974,3.225,3.333,7.004c2.359,3.772,6.164,8.244,11.987,10.837c2.479,1.087,6.805,2.035,12.59,3.003
	c17.268,2.87,46.807,5.399,66.364,5.399c7.072-0.004,12.788-0.315,16.396-1.138c1.788-0.415,4.204-0.618,7.036-0.614
	c9.618-0.008,23.947,2.302,37.212,4.883c13.289,2.582,25.521,5.424,31.327,6.479c2.073,0.371,5.19,0.507,9.245,0.511
	c24.856-0.008,83.96-5.581,97.484-7.655c6.099-0.942,23.619-1.93,43.397-2.656c19.801-0.733,41.981-1.219,57.741-1.215
	c7.079-0.004,12.87,0.097,16.518,0.311c4.147,0.243,12.013,0.336,22.125,0.34c40.394,0,116.358-1.527,125.836-1.527
	c6.12-0.004,18.056-0.9,30.061-2.552c6.001-0.822,12.007-1.838,17.295-3.025c5.294-1.193,9.85-2.545,13.085-4.154
	c5.596-2.821,11.83-8.617,16.837-13.94c2.495-2.664,4.654-5.202,6.213-7.2c0.779-1.001,1.409-1.862,1.866-2.563
	c0.232-0.354,0.423-0.665,0.576-0.97l0.219-0.489c0.061-0.193,0.14-0.394,0.149-0.805c-0.008-0.274-0.05-0.769-0.465-1.27
	c-0.422-0.507-1.094-0.679-1.455-0.661c-0.447,0.011-0.669,0.111-0.857,0.183c-0.519,0.243-0.795,0.479-1.227,0.822
	c-3.047,2.597-9.489,4.748-17.641,6.942c-8.159,2.231-18.056,4.627-28.299,8.238c-9.797,3.469-23.707,4.978-37.352,5.714
	c-13.649,0.744-27.036,0.744-36.089,1.343c-1.319,0.088-3.275,0.13-5.728,0.13c-24.569,0-98.439-4.201-129.663-4.201
	c-5.834,0.004-10.139,0.136-12.621,0.511c-7.561,1.166-23.089,2.07-39.764,2.962c-16.69,0.893-34.58,1.786-47.172,2.987
	c-24.881,2.371-67.807,2.379-88.1,2.775c-0.368,0.008-0.762,0.008-1.162,0.008c-10.562,0.006-32.049-2.472-50.777-4.956
	c-9.366-1.244-18.069-2.485-24.426-3.418c-6.357-0.93-10.354-1.548-10.361-1.552l-0.047-0.008l-69.3-7.164H31.086l0.704,2.353
	L33.547,852.43z"/>
</svg>
